<?xml version="1.0" encoding="utf-8"?>
<!-- Generator: Adobe Illustrator 15.0.0, SVG Export Plug-In  -->
<!DOCTYPE svg PUBLIC "-//W3C//DTD SVG 1.1//EN" "http://www.w3.org/Graphics/SVG/1.1/DTD/svg11.dtd" [
	<!ENTITY ns_flows "http://ns.adobe.com/Flows/1.0/">
]>
<svg version="1.1"
	 xmlns="http://www.w3.org/2000/svg" xmlns:xlink="http://www.w3.org/1999/xlink" xmlns:a="http://ns.adobe.com/AdobeSVGViewerExtensions/3.0/"
	 x="0px" y="0px" width="101px" height="42px" viewBox="-0.007 -0.722 101 42"
	 overflow="visible" enable-background="new -0.007 -0.722 101 42" xml:space="preserve">
<defs>
</defs>
<path fill-rule="evenodd" clip-rule="evenodd" fill="#FFFFFF" d="M73.255,29.75c0.341,0,0.635,0.123,0.878,0.363
	c0.242,0.242,0.362,0.535,0.362,0.879c0,0.346-0.12,0.639-0.362,0.883S73.6,32.24,73.255,32.24c-0.348,0-0.641-0.121-0.883-0.365
	c-0.24-0.244-0.359-0.537-0.359-0.883c0-0.344,0.12-0.637,0.364-0.879C72.617,29.873,72.912,29.75,73.255,29.75L73.255,29.75z
	 M74.701,30.992c0-0.4-0.142-0.738-0.423-1.02c-0.282-0.279-0.624-0.42-1.021-0.42c-0.398,0-0.737,0.141-1.017,0.42
	c-0.283,0.283-0.423,0.623-0.423,1.02c0,0.398,0.139,0.74,0.419,1.021s0.619,0.422,1.021,0.422c0.396,0,0.738-0.141,1.021-0.422
	C74.56,31.73,74.701,31.391,74.701,30.992L74.701,30.992z M73.64,30.676c0,0.123-0.055,0.205-0.165,0.248
	c-0.058,0.021-0.148,0.033-0.268,0.033h-0.253v-0.568h0.24c0.156,0,0.27,0.02,0.338,0.059C73.604,30.486,73.64,30.564,73.64,30.676
	L73.64,30.676z M72.674,30.195v1.58h0.28v-0.621h0.22c0.149,0,0.253,0.016,0.312,0.049c0.1,0.062,0.148,0.18,0.148,0.365v0.125
	l0.006,0.051c0.001,0.006,0.002,0.01,0.005,0.02c0.001,0.002,0.002,0.008,0.002,0.012h0.262L73.9,31.754
	c-0.009-0.01-0.013-0.037-0.016-0.08c-0.003-0.039-0.004-0.08-0.004-0.117v-0.119c0-0.076-0.028-0.158-0.084-0.24
	c-0.058-0.086-0.146-0.137-0.271-0.158c0.101-0.016,0.176-0.039,0.229-0.074c0.104-0.068,0.154-0.172,0.154-0.314
	c0-0.199-0.082-0.334-0.245-0.4c-0.092-0.037-0.236-0.055-0.434-0.055H72.674L72.674,30.195z"/>
<path fill-rule="evenodd" clip-rule="evenodd" fill="#FFFFFF" d="M44.737,23.369c1.446,0.57,2.874,1.182,4.282,1.836
	c-4.491,1.82-8.822,3.977-12.956,6.449c-1.396-0.736-2.816-1.432-4.256-2.08C35.934,27.172,40.257,25.094,44.737,23.369
	L44.737,23.369z"/>
<path fill-rule="evenodd" clip-rule="evenodd" fill="#FFFFFF" d="M39.397,21.484c-4.656,1.475-9.143,3.404-13.393,5.746
	c1.356,0.486,2.697,1.01,4.022,1.57c4.116-2.422,8.469-4.463,12.998-6.084C41.829,22.275,40.616,21.863,39.397,21.484L39.397,21.484
	z"/>
<path fill-rule="evenodd" clip-rule="evenodd" fill="#FFFFFF" d="M54.466,23.189c-3.659-1.771-7.46-3.264-11.367-4.451
	c-1.374,0.395-2.737,0.826-4.092,1.295c4.024,1.191,7.938,2.699,11.705,4.504C51.952,24.062,53.201,23.611,54.466,23.189
	L54.466,23.189z"/>
<path fill-rule="evenodd" clip-rule="evenodd" fill="#FFFFFF" d="M60.438,21.406c-3.751-1.633-7.619-3-11.581-4.086
	c-1.258,0.26-2.509,0.549-3.75,0.869c3.925,1.148,7.75,2.6,11.433,4.334C57.828,22.123,59.128,21.752,60.438,21.406L60.438,21.406z"
	/>
<path fill-rule="evenodd" clip-rule="evenodd" fill="#FFFFFF" d="M70.021,24.629c-9.396,3.162-18.197,7.678-26.159,13.324
	c1.99,1.227,3.936,2.52,5.823,3.887c7.508-5.953,15.842-10.914,24.808-14.68C73.028,26.271,71.54,25.428,70.021,24.629
	L70.021,24.629z"/>
<path fill-rule="evenodd" clip-rule="evenodd" fill="#FFFFFF" d="M63.562,21.557c-9.767,2.582-18.951,6.752-27.229,12.242
	c1.866,0.918,3.694,1.904,5.487,2.939c2.686-1.857,5.469-3.579,8.338-5.156c5.803-3.188,11.96-5.785,18.385-7.719
	C66.911,23.043,65.247,22.273,63.562,21.557L63.562,21.557z"/>
<path fill-rule="evenodd" clip-rule="evenodd" fill="#FFFFFF" d="M37.167,3.316c2.375,0,3.555,1.742,3.555,4.104
	c0,2.453-1.133,4.168-3.555,4.168c-2.423,0-3.554-1.715-3.554-4.168C33.613,5.059,34.792,3.316,37.167,3.316L37.167,3.316z
	 M37.167,9.982c0.629,0,0.911-0.564,0.911-2.562c0-1.824-0.188-2.502-0.911-2.502s-0.912,0.678-0.912,2.502
	C36.255,9.418,36.537,9.982,37.167,9.982L37.167,9.982z"/>
<path fill-rule="evenodd" clip-rule="evenodd" fill="#FFFFFF" d="M42.364,5.316h-1.039V3.523h1.039V2.645
	C42.364,0.709,43.321,0,45.003,0c0.504,0,0.881,0.049,1.29,0.096v1.951c-0.141-0.033-0.331-0.062-0.469-0.062
	c-0.673,0-0.917,0.26-0.917,0.74v0.799h1.386v1.793h-1.386v6.102h-2.543V5.316L42.364,5.316z"/>
<path fill-rule="evenodd" clip-rule="evenodd" fill="#FFFFFF" d="M12.659,5.725c0-0.471-0.22-0.787-0.66-0.787
	c-0.609,0-0.808,0.58-0.836,1.039L8.948,5.521c0.283-1.557,1.696-2.186,3.145-2.186c1.524,0,3.112,0.662,3.112,2.404v4.404
	c0,0.896,0.143,1.164,0.237,1.273h-2.625c-0.05-0.221-0.065-0.592-0.081-0.725c-0.434,0.463-1.188,0.873-1.937,0.873
	c-1.271,0-2.239-0.857-2.2-2.309c0.055-2.051,2.376-2.658,4.06-2.855V5.725L12.659,5.725z M12.659,7.627
	c-0.891,0.086-1.558,0.424-1.558,1.434c0,0.547,0.283,0.836,0.74,0.836c0.288,0,0.6-0.205,0.817-0.492V7.627L12.659,7.627z"/>
<path fill-rule="evenodd" clip-rule="evenodd" fill="#FFFFFF" d="M19.243,5.775v5.643h-2.55V3.523h2.493L19.2,4.33h0.031
	c0.526-0.533,1.227-0.994,2.221-0.994c1.117,0,1.753,0.754,1.753,1.842v6.24h-2.548V5.982c0-0.447-0.162-0.697-0.588-0.697
	C19.784,5.285,19.472,5.473,19.243,5.775L19.243,5.775z"/>
<polygon fill-rule="evenodd" clip-rule="evenodd" fill="#FFFFFF" points="24.787,0.221 27.334,0.221 27.334,5.91 27.364,5.91 
	29.239,3.523 31.772,3.523 29.642,5.953 31.783,11.418 29.143,11.418 27.903,7.971 27.871,7.971 27.334,8.59 27.334,11.418 
	24.787,11.418 24.787,0.221 "/>
<path fill-rule="evenodd" clip-rule="evenodd" fill="#FFFFFF" d="M5.883,5.594c1.214,0.4,2.094,1.395,2.094,2.826
	c0,1.918-1.539,2.998-3.663,2.998H0V0.221h4.424c1.984,0,3.285,1.189,3.285,2.736c0,1.467-1.015,2.234-1.826,2.551V5.594
	L5.883,5.594z M2.75,9.344h1.037c0.611,0,1.426-0.27,1.426-1.418c0-0.834-0.515-1.383-1.426-1.383H2.75V9.344L2.75,9.344z
	 M2.75,4.656h0.923c1.025,0,1.432-0.549,1.432-1.211c0-1.068-0.722-1.24-1.365-1.24H2.75V4.656L2.75,4.656z"/>
<path fill-rule="evenodd" clip-rule="evenodd" fill="#FFFFFF" d="M97.921,5.725c0-0.471-0.22-0.787-0.66-0.787
	c-0.61,0-0.805,0.58-0.833,1.039l-2.217-0.455c0.282-1.557,1.697-2.186,3.146-2.186c1.524,0,3.111,0.662,3.111,2.404v4.404
	c0,0.896,0.143,1.164,0.238,1.273h-2.629c-0.044-0.221-0.061-0.592-0.076-0.725c-0.437,0.463-1.189,0.873-1.938,0.873
	c-1.272,0-2.24-0.857-2.199-2.309c0.053-2.051,2.374-2.658,4.057-2.855V5.725L97.921,5.725z M97.921,7.627
	c-0.891,0.086-1.555,0.424-1.555,1.434c0,0.547,0.281,0.836,0.735,0.836c0.293,0,0.604-0.205,0.819-0.492V7.627L97.921,7.627z"/>
<path fill-rule="evenodd" clip-rule="evenodd" fill="#FFFFFF" d="M71.737,8.018c-0.036,0.703,0.148,1.871,1.177,1.871
	c0.612,0,1.131-0.449,1.262-1.086l1.711,0.631c-0.107,0.359-0.896,2.154-3.16,2.154c-2.437,0-3.539-1.965-3.539-4.152
	c0-2.234,1.164-4.119,3.509-4.119C75.149,3.316,76,5.424,76,7.484v0.533H71.737L71.737,8.018z M73.64,6.508
	c0.022-0.732-0.08-1.59-0.959-1.59c-0.725,0-0.985,0.848-0.943,1.59H73.64L73.64,6.508z"/>
<polygon fill-rule="evenodd" clip-rule="evenodd" fill="#FFFFFF" points="82.868,3.523 85.415,3.523 85.415,11.418 82.868,11.418 
	82.868,3.523 "/>
<polygon fill-rule="evenodd" clip-rule="evenodd" fill="#FFFFFF" points="82.868,0.221 85.415,0.221 85.415,2.486 82.868,2.486 
	82.868,0.221 "/>
<path fill-rule="evenodd" clip-rule="evenodd" fill="#FFFFFF" d="M91.066,6.445c0-0.314-0.015-0.691-0.126-0.992
	c-0.124-0.312-0.329-0.535-0.739-0.535c-0.847,0-0.942,1.041-0.942,2.611c0,1.779,0.283,2.359,0.942,2.359
	c0.897,0,0.976-0.914,0.976-1.51l1.982,0.281c-0.19,1.922-1.289,2.928-3.145,2.928c-2.297,0-3.491-2.012-3.491-3.963
	c0-2.154,1.194-4.309,3.597-4.309c2.709,0,3.118,2.344,3.118,3.129H91.066L91.066,6.445z"/>
<path fill-rule="evenodd" clip-rule="evenodd" fill="#FFFFFF" d="M50.724,0.221h3.711l2.391,11.197h-2.752l-0.441-2.262h-2.595
	l-0.486,2.262h-2.453L50.724,0.221L50.724,0.221z M51.431,7.172h1.809l-0.805-4.559h-0.057L51.431,7.172L51.431,7.172z"/>
<path fill-rule="evenodd" clip-rule="evenodd" fill="#FFFFFF" d="M77.047,3.523h2.465l0.028,1.07h0.039
	c0.521-0.832,1.47-1.258,2.453-1.258v2.58c-0.289-0.111-0.6-0.221-1.037-0.221c-0.652,0-1.099,0.256-1.4,0.613v5.109h-2.548V3.523
	L77.047,3.523z"/>
<path fill-rule="evenodd" clip-rule="evenodd" fill="#FFFFFF" d="M64.12,5.789v5.629h-2.501V6.01c0-0.426-0.128-0.709-0.6-0.709
	c-0.269,0-0.647,0.197-0.864,0.488v5.629h-2.498V3.523h2.486l0.012,0.805h0.029c0.534-0.504,1.334-0.992,2.282-0.992
	c0.776,0,1.29,0.449,1.533,1.059h0.03c0.446-0.482,1.209-1.059,2.275-1.059c1.06,0,1.775,0.699,1.775,1.791v6.291h-2.5V6.01
	c0-0.426-0.127-0.709-0.595-0.709C64.647,5.301,64.285,5.568,64.12,5.789L64.12,5.789z"/>
</svg>
