<?xml version="1.0" encoding="utf-8"?>
<!-- Generator: Adobe Illustrator 16.2.0, SVG Export Plug-In . SVG Version: 6.00 Build 0)  -->
<!DOCTYPE svg PUBLIC "-//W3C//DTD SVG 1.1//EN" "http://www.w3.org/Graphics/SVG/1.1/DTD/svg11.dtd">
<svg version="1.1" id="Layer_1" xmlns="http://www.w3.org/2000/svg" xmlns:xlink="http://www.w3.org/1999/xlink" x="0px" y="0px"
	 width="15px" height="200px" viewBox="0 -49.907 15 200" enable-background="new 0 -49.907 15 200" xml:space="preserve">
<path opacity="0.25" fill="#FFFFFF" enable-background="new    " d="M9.333,113.275v3.939H5.391v-3.939H9.333 M11.833,110.775H2.891
	v8.939h8.942V110.775L11.833,110.775z"/>
<circle opacity="0.25" fill="#FFFFFF" enable-background="new    " cx="7.333" cy="46.054" r="3.5"/>
<path opacity="0.25" fill="#FFFFFF" enable-background="new    " d="M13.837,28.078c0,3.124-3.047,4.446-6.899,4.446
	C3.066,32.524,0,31.163,0,28.04c0-3.105,3.047-4.428,6.899-4.428C10.771,23.612,13.837,24.974,13.837,28.078z M2.396,28.078
	c0,1.438,1.648,1.993,4.504,1.993s4.542-0.594,4.542-2.031c0-1.418-1.646-1.975-4.502-1.975S2.396,26.66,2.396,28.078z"/>
<path opacity="0.25" fill="#FFFFFF" enable-background="new    " d="M13.626,14.413l-5.099,2.089v0.786h5.099v2.396H0.21v-3.565
	c0-2.605,1.399-4.273,4.179-4.273c1.878,0,3.047,0.959,3.66,2.262l5.577-2.3V14.413z M2.549,16.233v1.055h3.737V16.1
	c0-1.227-0.633-1.858-1.859-1.858C3.22,14.241,2.549,14.796,2.549,16.233z"/>
<path opacity="0.25" fill="#FFFFFF" enable-background="new    " d="M13.837,4.255c0,3.124-3.047,4.446-6.899,4.446
	C3.066,8.701,0,7.341,0,4.217C0,2.185,1.073,0.71,3.392,0.134L4.12,2.377C2.855,2.722,2.396,3.335,2.396,4.255
	c0,1.438,1.648,1.993,4.504,1.993s4.542-0.595,4.542-2.031c0-1.457-0.729-1.897-2.721-1.897v1.916H6.478V0h2.299
	C11.997,0,13.837,1.457,13.837,4.255z"/>
<path opacity="0.25" fill="#FFFFFF" enable-background="new    " d="M13.837,144.825c0,1.821-0.958,3.086-2.108,4.006l-1.744-1.629
	c1.035-0.806,1.533-1.668,1.533-2.474c0-0.996-0.556-1.494-1.455-1.494c-0.768,0-1.381,0.479-2.187,2.052
	c-1.034,1.991-2.05,3.2-4.273,3.2c-2.012,0-3.603-1.495-3.603-3.758c0-1.666,0.671-2.701,1.916-3.66l1.591,1.592
	c-0.882,0.785-1.188,1.207-1.188,2.127c0,0.767,0.499,1.265,1.169,1.265c0.806,0,1.304-0.459,2.09-1.916
	c1.245-2.319,2.165-3.335,4.427-3.335C12.227,140.801,13.837,142.334,13.837,144.825z"/>
<path opacity="0.25" fill="#FFFFFF" enable-background="new    " d="M2.529,134.706H5.5v-3.144h2.319v3.144h5.807v2.396H0.21v-7.072
	h2.319V134.706z"/>
<path opacity="0.25" fill="#FFFFFF" enable-background="new    " d="M13.626,95.689l-2.798,0.633v3.009l2.798,0.633v2.453
	L0.21,98.984v-2.338l13.416-3.431V95.689z M6.995,97.204c-1.035,0.229-2.588,0.536-3.258,0.632c0.689,0.096,2.127,0.364,3.219,0.613
	l1.63,0.363v-1.976L6.995,97.204z"/>
<path opacity="0.25" fill="#FFFFFF" enable-background="new    " d="M13.626,84.248l-5.099,2.089v0.786h5.099v2.396H0.21v-3.564
	c0-2.607,1.399-4.273,4.179-4.273c1.878,0,3.047,0.957,3.66,2.262l5.577-2.301V84.248z M2.549,86.068v1.055h3.737v-1.188
	c0-1.229-0.633-1.859-1.859-1.859C3.22,84.075,2.549,84.632,2.549,86.068z"/>
<path opacity="0.25" fill="#FFFFFF" enable-background="new    " d="M2.511,73.728h11.115v2.396H2.511v2.778H0.21v-7.953h2.301
	V73.728z"/>
<path opacity="0.25" fill="#FFFFFF" enable-background="new    " d="M13.837,64.354c0,1.821-0.958,3.086-2.108,4.006l-1.744-1.629
	c1.035-0.805,1.533-1.668,1.533-2.473c0-0.996-0.556-1.494-1.455-1.494c-0.768,0-1.381,0.479-2.187,2.051
	c-1.034,1.992-2.05,3.2-4.273,3.2C1.591,68.016,0,66.521,0,64.259c0-1.667,0.671-2.702,1.916-3.66l1.591,1.591
	c-0.882,0.786-1.188,1.207-1.188,2.127c0,0.767,0.499,1.265,1.169,1.265c0.806,0,1.304-0.459,2.09-1.916
	c1.245-2.319,2.165-3.335,4.427-3.335C12.227,60.33,13.837,61.863,13.837,64.354z"/>
<g opacity="0.25">
	
		<image overflow="visible" opacity="0.1" width="27" height="47" xlink:href="BF3DF7284FA33DE9.png"  transform="matrix(1 0 0 1 -5 -52.5)">
	</image>
	<g>
		<g>
			<path fill="#FFFFFF" d="M8.962-21.191c-0.425,0-0.743,0.457-0.743,0.872v0.86h1.52v-0.967
				C9.738-20.841,9.398-21.191,8.962-21.191z"/>
			<path fill="#FFFFFF" d="M6.073-21.032c-0.426,0-0.723,0.34-0.723,0.744v0.828h1.487v-0.828
				C6.838-20.691,6.498-21.032,6.073-21.032z"/>
			<polygon fill="#FFFFFF" points="6.954,-38.159 8.706,-37.362 8.706,-38.977 6.954,-38.17 			"/>
			<path fill="#FFFFFF" d="M0-46.908v34.253h14.971v-34.253H0z M11.256-18.004c0,0.116-0.096,0.202-0.201,0.202H4.023
				c-0.107,0-0.202-0.085-0.202-0.202v-2.475c0-1.254,0.859-2.284,1.975-2.284c0.817,0,1.414,0.733,1.679,1.232
				c0.233-0.563,0.754-1.423,1.731-1.423c1.191,0,2.05,1.051,2.05,2.315V-18.004z M11.256-24.507c0,0.117-0.096,0.202-0.201,0.202
				H4.023c-0.107,0-0.202-0.085-0.202-0.202v-4.397c0-0.117,0.095-0.202,0.202-0.202h1.158c0.105,0,0.202,0.085,0.202,0.202v2.942
				H6.7v-2.422c0-0.106,0.095-0.202,0.202-0.202h1.157c0.118,0,0.202,0.096,0.202,0.202v2.422h1.436v-2.942
				c0-0.117,0.094-0.202,0.201-0.202h1.157c0.105,0,0.201,0.085,0.201,0.202V-24.507z M11.256-31.689
				c0,0.106-0.096,0.202-0.201,0.202H5.382v1.519c0,0.117-0.096,0.202-0.202,0.202H4.023c-0.107,0-0.202-0.085-0.202-0.202v-4.717
				c0-0.117,0.095-0.202,0.202-0.202h1.158c0.105,0,0.202,0.084,0.202,0.202v1.52h5.672c0.105,0,0.201,0.095,0.201,0.202V-31.689z
				 M11.256-40.369c0,0.191-0.063,0.276-0.265,0.372l-0.84,0.383v2.89l0.852,0.382c0.126,0.053,0.253,0.169,0.253,0.382v1.168
				c0,0.16-0.139,0.245-0.274,0.181l-7.15-3.325c-0.064-0.032-0.117-0.106-0.117-0.18v-0.106c0-0.074,0.053-0.149,0.117-0.181
				l7.15-3.325c0.136-0.064,0.274,0.021,0.274,0.181V-40.369z"/>
		</g>
	</g>
</g>
</svg>
